# xmcd
#
# Track frame offsets: 
#        150
#        19838
#        33821
#        43405
#        60194
#        77426
#        98883
#        107539
#        125377
#        135380
#        151868
#        164742
#        184688
#
# Disc length: 2688 seconds
#
# Revision: 3
# Processed by: cddbd v1.5.2PL0 Copyright (c) Steve Scherf et al.
# Submitted via: ExactAudioCopy v0.99pb4
#
DISCID=980a7e0d
DTITLE=Sounds Of The Season - The Country Collection
DYEAR=2004
DGENRE=Country
TTITLE0=Let It Snow/Winter Wonderland [Lee Ann Womack]
TTITLE1=Blame It On The Mistletoe [Toby Keith]
TTITLE2=Santa's On His Way [George Strait]
TTITLE3=I Saw Mommy Kissing Santa Claus [Reba McEntire]
TTITLE4=Blue Christmas [Vince Gill]
TTITLE5=O Holy Night [Gary Allan]
TTITLE6=Frosty The Snowman [Loretta Lynn]
TTITLE7=O' Come All Ye Faithful [Darryl Worley]
TTITLE8=Old Toy Trains [Joe Nichols]
TTITLE9=Silent Night [Julie Roberts]
TTITLE10=Merry Christmas (Wherever In The World You Are) [Terri Clark]
TTITLE11=The First Noel [Josh Turner]
TTITLE12=Paper Angels [Jimmy Wayne]
EXTD=The Country Collection
EXTT0=
EXTT1=
EXTT2=
EXTT3=
EXTT4=
EXTT5=
EXTT6=
EXTT7=
EXTT8=
EXTT9=
EXTT10=
EXTT11=
EXTT12=
PLAYORDER=
